<svg id="Capa_1" enable-background="new 0 0 512 512" height="512" viewBox="0 0 512 512" width="512" xmlns="http://www.w3.org/2000/svg"><g><g><path d="m49.342 293.602h-46.586c3.789 25.741 11.402 50.237 22.256 72.888l322.4 82.337 154.36-264.646c-31.048-106.423-129.322-184.181-245.772-184.181-84.87 0-160.081 41.311-206.658 104.91z" fill="#85faf4"/></g><g><g><g><g><path d="m170.057 288.016c-3.932 7.374-4.656 16.384-1.209 24.708 3.448 8.324 10.331 14.182 18.326 16.616-.811 8.318 1.968 16.919 8.339 23.289 6.371 6.371 14.972 9.149 23.289 8.339 2.434 7.995 8.293 14.878 16.616 18.326s17.333 2.723 24.708-1.209c5.308 6.455 13.355 10.572 22.364 10.572s17.056-4.117 22.364-10.572c7.374 3.932 16.384 4.656 24.708 1.209 8.323-3.448 14.182-10.331 16.616-18.326 8.318.811 16.919-1.968 23.289-8.339 6.371-6.371 9.149-14.972 8.339-23.289 7.995-2.434 14.878-8.293 18.326-16.616s2.723-17.333-1.209-24.708c6.455-5.308 10.572-13.355 10.572-22.364s-4.117-17.056-10.572-22.364c3.932-7.374 4.656-16.384 1.209-24.708-3.448-8.323-10.331-14.182-18.326-16.616.811-8.317-1.968-16.919-8.339-23.289-6.371-6.371-14.972-9.149-23.289-8.339-2.434-7.995-8.293-14.878-16.616-18.326s-17.333-2.723-24.708 1.209c-5.308-6.455-13.355-10.572-22.364-10.572s-17.056 4.117-22.364 10.572c-7.374-3.932-16.384-4.656-24.708-1.209-8.324 3.448-14.182 10.331-16.616 18.326-8.318-.811-16.919 1.968-23.289 8.339-6.371 6.37-9.149 14.972-8.339 23.289-7.995 2.434-14.878 8.293-18.326 16.616s-2.723 17.333 1.209 24.708c-6.455 5.308-10.572 13.355-10.572 22.364s4.118 17.056 10.572 22.364z" fill="#389f4d"/></g></g></g></g><g><path d="m297.242 434.925c-4.382-68.755-6.014-118.338-6.52-136.867-.122-4.458-3.771-8.003-8.232-8.003-4.46 0-8.11 3.545-8.231 8.003-.506 18.529-2.138 68.112-6.52 136.867z" fill="#b2381b"/></g><g><g><g><g><path d="m264.26 152.904c-3.713 6.964-4.397 15.473-1.141 23.334s9.757 13.394 17.307 15.693c-.766 7.855 1.859 15.978 7.875 21.995 6.016 6.016 14.139 8.641 21.995 7.875 2.299 7.55 7.832 14.051 15.693 17.307s16.37 2.572 23.334-1.141c5.013 6.096 12.613 9.984 21.121 9.984s16.108-3.888 21.121-9.984c6.964 3.713 15.473 4.397 23.334 1.141s13.394-9.757 15.693-17.307c7.855.766 15.978-1.859 21.995-7.875 6.016-6.016 8.641-14.14 7.875-21.995 7.55-2.299 14.051-7.832 17.307-15.693s2.572-16.37-1.141-23.334c6.096-5.013 9.984-12.613 9.984-21.121s-3.888-16.108-9.984-21.121c3.713-6.964 4.397-15.473 1.141-23.334s-9.757-13.394-17.307-15.693c.766-7.855-1.859-15.978-7.875-21.995s-14.14-8.641-21.995-7.875c-2.299-7.55-7.832-14.051-15.693-17.307s-16.37-2.572-23.334 1.141c-5.013-6.096-12.613-9.984-21.121-9.984s-16.108 3.888-21.121 9.984c-6.964-3.713-15.473-4.397-23.334-1.141s-13.394 9.757-15.693 17.307c-7.855-.766-15.978 1.858-21.995 7.875-6.016 6.016-8.641 14.139-7.875 21.995-7.55 2.299-14.051 7.832-17.307 15.693s-2.572 16.37 1.141 23.334c-6.096 5.013-9.984 12.613-9.984 21.121s3.889 16.107 9.984 21.121z" fill="#a3ea6e"/></g></g></g></g><g><path d="m288.301 49.64c-6.016 6.016-8.641 14.139-7.875 21.995-7.55 2.299-14.051 7.832-17.307 15.692-3.256 7.861-2.572 16.37 1.141 23.334-6.096 5.013-9.984 12.613-9.984 21.121s3.888 16.108 9.984 21.121c-3.713 6.964-4.397 15.473-1.141 23.334s9.757 13.394 17.307 15.693c-.766 7.855 1.859 15.978 7.875 21.995 6.016 6.016 14.14 8.641 21.995 7.875 2.299 7.55 7.832 14.051 15.693 17.307s16.37 2.572 23.334-1.141c5.013 6.096 12.613 9.984 21.121 9.984s16.108-3.888 21.121-9.984c2.09 1.115 4.321 1.95 6.63 2.494 0-33.334 0-67.565 0-77.893-.001-21.934-14.695-34.567-56.195-50.067s-39-47.5-31.705-70.735c-7.855-.765-15.978 1.859-21.994 7.875z" fill="#85d249"/></g><g><path d="m385.195 236.806c-4.382-68.755-6.014-118.338-6.52-136.867-.122-4.458-3.771-8.003-8.232-8.003-4.46 0-8.11 3.545-8.231 8.003-.506 18.529-2.138 68.112-6.52 136.867z" fill="#c04a27"/></g><g><path d="m478.917 367.75 8.054-1.258c16.032-33.452 25.029-70.919 25.029-110.492 0-24.935-3.58-49.032-10.228-71.82-5.604-3.782-12.248-5.367-18.723-4.735-2.4-7.883-8.177-14.671-16.385-18.07-8.208-3.4-17.092-2.685-24.364 1.192-5.234-6.365-13.169-10.425-22.053-10.425s-16.819 4.06-22.053 10.425c-7.271-3.877-16.156-4.591-24.364-1.192s-13.985 10.187-16.385 18.07c-8.202-.799-16.683 1.941-22.965 8.223s-9.022 14.763-8.222 22.965c-7.883 2.4-14.671 8.177-18.07 16.385-3.4 8.208-2.685 17.092 1.192 24.364-6.365 5.234-10.425 13.169-10.425 22.053s4.06 16.819 10.425 22.053c-3.877 7.271-4.591 16.156-1.192 24.364 3.4 8.208 10.187 13.985 18.07 16.385-.799 8.202 1.941 16.683 8.222 22.965 6.282 6.282 14.763 9.022 22.965 8.223 2.4 7.883 8.177 14.671 16.385 18.07s17.092 2.685 24.364-1.192c5.234 6.365 13.169 10.425 22.053 10.425s16.819-4.06 22.053-10.425c7.271 3.877 16.156 4.592 24.364 1.192 6.812-2.822 11.942-7.98 14.865-14.159z" fill="#85d249"/></g><g><path d="m478.917 367.75 8.054-1.258c7.757-16.186 13.866-33.308 18.103-51.159-20.865-30.951-63.417-28.196-99.578-41.899-42.838-16.233-37.829-77.1-7.301-110.867-7.271-3.877-16.156-4.591-24.364-1.192s-13.985 10.187-16.385 18.07c-8.202-.799-16.683 1.941-22.965 8.223s-9.022 14.763-8.222 22.965c-7.883 2.4-14.671 8.177-18.07 16.385-3.4 8.208-2.685 17.092 1.192 24.364-6.365 5.234-10.425 13.169-10.425 22.053s4.06 16.819 10.425 22.053c-3.877 7.271-4.591 16.156-1.192 24.364 3.4 8.208 10.187 13.985 18.07 16.385-.799 8.202 1.941 16.683 8.222 22.965 6.282 6.282 14.763 9.022 22.965 8.223 2.4 7.883 8.177 14.671 16.385 18.07s17.092 2.685 24.364-1.192c5.234 6.365 13.169 10.425 22.053 10.425s16.819-4.06 22.053-10.425c7.271 3.877 16.156 4.592 24.364 1.192 6.812-2.822 11.942-7.98 14.865-14.159z" fill="#60b550"/></g><g><path d="m337.764 191.669c.75-2.789 1.156-5.718 1.156-8.743 0-14.125-8.72-26.206-21.066-31.176-2.242-15.294-14.786-27.232-30.36-28.556-5.378-11.391-16.965-19.276-30.398-19.276-1.461 0-2.897.104-4.309.284-6.145-7.952-15.77-13.078-26.596-13.078-3.423 0-6.726.515-9.837 1.467-5.998-5.574-14.031-8.988-22.865-8.988-5.778 0-11.214 1.459-15.962 4.028-5.637-4.274-12.661-6.813-20.28-6.813s-14.643 2.54-20.28 6.813c-4.749-2.568-10.185-4.028-15.962-4.028-8.834 0-16.867 3.414-22.865 8.988-3.112-.952-6.414-1.467-9.837-1.467-10.827 0-20.451 5.126-26.596 13.078-1.412-.181-2.848-.284-4.309-.284-2.779 0-5.473.355-8.056.991-31.015 42.35-49.342 94.577-49.342 151.091 0 12.776.949 25.328 2.756 37.602 5.58 7.623 14.29 12.809 24.244 13.655 5.378 11.391 16.965 19.276 30.398 19.276 1.461 0 2.897-.104 4.309-.284 6.145 7.952 15.77 13.078 26.596 13.078 3.423 0 6.726-.515 9.837-1.467 5.998 5.574 14.031 8.988 22.865 8.988 5.778 0 11.214-1.459 15.962-4.028 5.637 4.274 12.661 6.813 20.28 6.813s14.643-2.539 20.28-6.813c4.749 2.568 10.185 4.028 15.962 4.028 8.834 0 16.867-3.414 22.865-8.988 3.112.952 6.414 1.467 9.837 1.467 10.827 0 20.451-5.126 26.596-13.078 1.412.181 2.848.284 4.309.284 13.433 0 25.02-7.885 30.398-19.276 15.574-1.323 28.118-13.262 30.36-28.556 12.347-4.969 21.066-17.051 21.066-31.176 0-3.025-.406-5.955-1.156-8.743 5.965-6.064 9.648-14.379 9.648-23.557 0-9.177-3.683-17.492-9.648-23.556z" fill="#60b550"/></g><g><path d="m240.516 259.307s-23.422-20.108-16.12-65.751c.438-2.74-1.516-5.29-4.274-5.6-2.376-.267-4.591 1.219-5.242 3.519-3.731 13.193-12.992 56.825 14.536 93.594z" fill="#c04a27"/></g><g><g><g><g><path d="m51.064 137.288c-3.713 6.964-4.397 15.473-1.141 23.334s9.757 13.394 17.307 15.693c-.766 7.855 1.859 15.978 7.875 21.995 6.016 6.016 14.14 8.641 21.995 7.875 2.299 7.55 7.832 14.051 15.693 17.307s16.37 2.572 23.334-1.141c5.013 6.096 12.613 9.984 21.121 9.984s16.108-3.888 21.121-9.984c6.964 3.713 15.473 4.397 23.334 1.141s13.394-9.757 15.693-17.307c7.855.766 15.978-1.859 21.995-7.875 6.016-6.016 8.641-14.14 7.875-21.995 7.55-2.299 14.051-7.832 17.307-15.693s2.572-16.37-1.141-23.334c6.096-5.013 9.984-12.613 9.984-21.121s-3.888-16.108-9.984-21.121c3.713-6.964 4.397-15.473 1.141-23.334s-9.757-13.394-17.307-15.693c.766-7.855-1.859-15.978-7.875-21.995s-14.139-8.641-21.995-7.875c-2.299-7.55-7.832-14.051-15.693-17.307s-16.37-2.572-23.334 1.141c-5.014-6.095-12.614-9.983-21.122-9.983s-16.108 3.888-21.121 9.984c-6.964-3.713-15.473-4.397-23.334-1.141s-13.394 9.756-15.693 17.307c-7.855-.766-15.978 1.858-21.995 7.875-6.016 6.016-8.641 14.139-7.875 21.995-7.55 2.299-14.051 7.832-17.307 15.693s-2.572 16.37 1.141 23.334c-6.096 5.013-9.984 12.613-9.984 21.121s3.89 16.107 9.985 21.12z" fill="#a3ea6e"/></g></g></g></g><g><path d="m75.105 34.024c-6.016 6.016-8.641 14.14-7.875 21.995-7.55 2.299-14.051 7.832-17.307 15.693s-2.572 16.37 1.141 23.334c-6.096 5.013-9.984 12.613-9.984 21.121s3.888 16.108 9.984 21.121c-3.713 6.964-4.397 15.473-1.141 23.334s9.757 13.394 17.307 15.693c-.766 7.855 1.859 15.978 7.875 21.995s14.139 8.641 21.995 7.875c2.299 7.55 7.832 14.051 15.693 17.307s16.37 2.572 23.334-1.141c5.013 6.096 12.613 9.984 21.121 9.984s16.108-3.888 21.121-9.984c6.964 3.713 15.473 4.397 23.334 1.141s13.394-9.757 15.693-17.307c-22.607-15.817-30.396-40.685-10.396-80.185s-16-71.5-53.5-57-65.5-11-56.401-42.851c-7.855-.765-15.978 1.859-21.994 7.875z" fill="#85d249"/></g><g><path d="m413.486 323.161s-29.585-8.809-41.531-53.462c-.717-2.681-3.542-4.212-6.186-3.37-2.278.725-3.695 2.985-3.351 5.351 1.974 13.568 11.31 57.184 51.439 79.531z" fill="#d85e41"/></g><g><path d="m142.332 259.995s-43.91 3.721-83.079-49.38c-2.361-3.201-6.916-3.791-10.004-1.283-2.646 2.148-3.358 5.891-1.67 8.851 9.693 16.996 44.858 70.13 109.877 78.907z" fill="#c04a27"/></g><g><path d="m229.416 285.069 11.1-25.762s-5.528-4.764-10.376-14.883c-5.109 5.117-10.163 9.286-15.026 12.685 2.947 9.364 7.498 18.872 14.302 27.96z" fill="#b2381b"/></g><g><path d="m157.456 297.091-15.124-37.096s-6.17.523-15.948-1.621c-.644 9.534-1.343 19.459-2.102 29.745 10.047 4.177 21.094 7.341 33.174 8.972z" fill="#b2381b"/></g><g><path d="m265.664 236.316c-3.088-2.507-7.643-1.918-10.004 1.283-33.625 45.585-70.742 49.295-80.576 49.432-6.744-91.921-8.994-159.492-9.604-181.85-.122-4.458-3.771-8.003-8.232-8.003-4.46 0-8.11 3.545-8.232 8.003-.24 8.782-.733 24.548-1.651 46.015-9.321-5.195-32.959-22.324-41.304-65.65-.63-3.27-3.88-5.344-7.118-4.562-2.784.672-4.678 3.253-4.468 6.109 1.172 15.976 8.292 66.713 51.335 97.219-2.761 54.237-7.646 130.03-16.152 216.512h55.177c-2.783-28.298-5.178-55.448-7.238-81.078 52.218-15.568 81.096-59.428 89.736-74.577 1.689-2.962.976-6.705-1.669-8.853z" fill="#d85e41"/></g><g><path d="m142.332 259.995-.977-.565c-2.817 41.757-6.609 89.659-11.697 141.393h55.177c-2.783-28.298-5.178-55.448-7.238-81.078-32.401-18.756-35.265-59.75-35.265-59.75z" fill="#c04a27"/></g><g><path d="m393.23 335.577c5.766 5.789 12.565 11.144 20.626 15.633l-.37-28.049s-8.951-2.681-18.993-12.508c-.372 7.783-.791 16.102-1.263 24.924z" fill="#c04a27"/></g><g><path d="m434.999 382.625c-4.382-68.755-6.014-118.338-6.52-136.867-.122-4.458-3.771-8.003-8.232-8.003-4.46 0-8.11 3.545-8.231 8.003-.506 18.529-2.138 68.112-6.52 136.867z" fill="#d85e41"/></g><g><path d="m256 459.868h154.83l.005.001c32.233-24.52 58.481-56.502 76.153-93.38-111.602 3.037-171.296 26.35-230.988 49.663z" fill="#85d249"/></g><g><path d="m308.324 396.661c-18.245 6.183-35.286 12.836-52.324 19.491v43.716h154.83l-102.504-63.205z" fill="#60b550"/></g><g><path d="m410.83 459.868c-42.996 32.705-96.641 52.132-154.83 52.132-101.815 0-189.743-59.441-230.988-145.51 194.728 5.297 231.421 72.327 385.818 93.378z" fill="#a3ea6e"/></g><g><path d="m61.357 368.3c-11.489-.848-23.574-1.463-36.345-1.811 41.245 86.07 129.173 145.511 230.988 145.511 58.189 0 111.834-19.427 154.83-52.132-173.17 52.869-301.83-21.868-349.473-91.568z" fill="#85d249"/></g></g></svg>