<svg width="27" height="25" viewBox="0 0 27 25" fill="none" xmlns="http://www.w3.org/2000/svg">
<path d="M26.2463 8.15965C25.4559 6.53849 24.0982 5.6308 22.7847 4.75195C21.8059 4.09618 20.8828 3.47695 20.229 2.59042L20.1078 2.42695C19.7232 1.90965 19.2847 1.32311 19.2174 0.8308C19.2117 0.790415 19.1886 0.757723 19.177 0.717338C19.1597 0.650031 19.1405 0.586569 19.1097 0.52503C19.0867 0.475031 19.054 0.4308 19.0194 0.384646C18.979 0.332723 18.9405 0.282723 18.8905 0.240415C18.8424 0.198107 18.7905 0.169261 18.7367 0.136569C18.6867 0.107723 18.6405 0.0807998 18.5847 0.061569C18.5174 0.036569 18.4482 0.0269536 18.3751 0.0192613C18.3386 0.0173382 18.3078 3.05176e-05 18.2694 3.05176e-05C18.2463 3.05176e-05 18.227 0.011569 18.2059 0.0134921C18.1828 0.0154152 18.1617 0.00579974 18.1386 0.00964589C18.0963 0.0154151 18.0636 0.0384921 18.0232 0.0500306C17.9578 0.0673383 17.8963 0.0846459 17.8386 0.115415C17.7847 0.142338 17.7386 0.176954 17.6924 0.215415C17.6424 0.253877 17.5944 0.292338 17.554 0.340415C17.5136 0.386569 17.4847 0.436569 17.454 0.488492C17.4232 0.542338 17.3944 0.594261 17.3732 0.653877C17.352 0.713492 17.3444 0.775031 17.3367 0.840415C17.327 0.878877 17.3078 0.917338 17.3078 0.961569V18.0962C16.502 17.6077 15.5097 17.3077 14.4232 17.3077C11.7713 17.3077 9.61551 19.0327 9.61551 21.1539C9.61551 23.275 11.7713 25 14.4232 25C17.0751 25 19.2309 23.275 19.2309 21.1539V9.94619C20.6751 10.4981 23.0386 11.9039 23.6886 15.1866C23.5674 15.3654 23.452 15.5596 23.3174 15.7116C22.9655 16.1096 23.0059 16.7173 23.404 17.0673C23.5867 17.2289 23.8136 17.3077 24.0386 17.3077C24.3059 17.3077 24.5694 17.1962 24.7597 16.9808C25.0155 16.6904 25.2444 16.3462 25.4636 15.9923C25.4886 15.9616 25.5078 15.9327 25.529 15.9C26.3059 14.6 26.8213 12.9558 26.9194 11.3308C26.9828 10.2866 26.7501 9.19042 26.2463 8.15965ZM14.4232 23.077C12.8597 23.077 11.5386 22.1962 11.5386 21.1539C11.5386 20.1116 12.8597 19.2308 14.4232 19.2308C15.9867 19.2308 17.3078 20.1116 17.3078 21.1539C17.3078 22.1962 15.9867 23.077 14.4232 23.077ZM25.002 11.2096C24.9751 11.6596 24.9059 12.1096 24.8078 12.55C23.4559 9.83657 21.004 8.42311 19.2309 7.90003V4.36734C19.9847 5.17118 20.8597 5.77311 21.7174 6.34618C22.8694 7.11734 23.9578 7.84618 24.5213 9.00195C24.8751 9.72311 25.0444 10.5096 25.002 11.2096Z" fill="white"/>
<path d="M12.5 3.05176e-05H0.961569C0.4308 3.05176e-05 3.05176e-05 0.4308 3.05176e-05 0.961569C3.05176e-05 1.49234 0.4308 1.92311 0.961569 1.92311H12.5C13.0308 1.92311 13.4616 1.49234 13.4616 0.961569C13.4616 0.4308 13.0308 3.05176e-05 12.5 3.05176e-05Z" fill="white"/>
<path d="M12.5 5.76938H0.961569C0.4308 5.76938 3.05176e-05 6.20015 3.05176e-05 6.73092C3.05176e-05 7.26169 0.4308 7.69246 0.961569 7.69246H12.5C13.0308 7.69246 13.4616 7.26169 13.4616 6.73092C13.4616 6.20015 13.0308 5.76938 12.5 5.76938Z" fill="white"/>
<path d="M6.7308 11.5387H0.961569C0.4308 11.5387 3.05176e-05 11.9695 3.05176e-05 12.5003C3.05176e-05 13.031 0.4308 13.4618 0.961569 13.4618H6.7308C7.26157 13.4618 7.69234 13.031 7.69234 12.5003C7.69234 11.9695 7.26157 11.5387 6.7308 11.5387Z" fill="white"/>
<path d="M6.7308 17.3078H0.961569C0.4308 17.3078 3.05176e-05 17.7385 3.05176e-05 18.2693C3.05176e-05 18.8001 0.4308 19.2308 0.961569 19.2308H6.7308C7.26157 19.2308 7.69234 18.8001 7.69234 18.2693C7.69234 17.7385 7.26157 17.3078 6.7308 17.3078Z" fill="white"/>
</svg>
