<svg height="399pt" viewBox="0 -44 399.79205 399" width="399pt" xmlns="http://www.w3.org/2000/svg"><path d="m267 202.710938c0-7.730469-6.269531-14-14-14s-14 6.269531-14 14v10.476562h28zm0 0"/><path d="m300.84375 312.1875c13.316406-.101562 24.082031-10.890625 24.15625-24.210938v-150.527343c-.066406-13.332031-10.828125-24.136719-24.15625-24.261719h-276.84375c-13.300781.136719-24.0078125 10.960938-24 24.261719v150.527343c0 13.289063 10.710938 24.09375 24 24.210938zm-73.84375-109.476562c0-14.359376 11.640625-26 26-26s26 11.640624 26 26v16.667968c.011719 1.5625-.609375 3.0625-1.726562 4.15625-1.113282 1.09375-2.625 1.691406-4.183594 1.652344h-40c-1.582032.046875-3.113282-.542969-4.257813-1.632812-1.144531-1.09375-1.804687-2.59375-1.832031-4.175782zm-104.578125 42.476562h80c3.324219.027344 6.003906 2.734375 6 6.058594-.003906 25.40625-20.605469 46-46.007813 45.992187-25.40625-.003906-45.996093-20.601562-45.992187-46.007812-.003906-3.320313 2.675781-6.023438 6-6.042969zm-76.421875-42.476562c0-14.359376 11.640625-26 26-26s26 11.640624 26 26v16.667968c-.132812 3.324219-2.921875 5.914063-6.246094 5.808594h-40c-1.546875.03125-3.035156-.570312-4.125-1.667969-1.089844-1.097656-1.675781-2.59375-1.628906-4.140625zm0 0"/><path d="m162.421875 285.1875c16.46875.015625 30.578125-11.785156 33.46875-28h-66.941406c2.890625 16.214844 17 28.015625 33.472656 28zm0 0"/><path d="m86 202.710938c0-7.730469-6.269531-14-14-14s-14 6.269531-14 14v10.476562h28zm0 0"/><path d="m337 155.867188v113.691406c29.082031-3.074219 51.15625-27.601563 51.15625-56.847656 0-29.242188-22.074219-53.769532-51.15625-56.84375zm0 0"/><path d="m102 77.519531v23.667969h121v-23.667969c.0625-2.257812-1.660156-4.164062-3.910156-4.332031h-113.335938c-2.203125 0-3.753906 2.125-3.753906 4.332031zm0 0"/><path d="m362.421875.394531c-20.789063.007813-37.667969 16.796875-37.789063 37.582031 0 18.675782 14.367188 34.210938 31.367188 37.09375v83.117188h12v-83.117188c19.351562-3.007812 33.148438-20.382812 31.6875-39.914062s-17.679688-34.660156-37.265625-34.761719zm0 0"/><path d="m162 32.1875c-3.3125 0-6 2.683594-6 6v29h12v-29c0-3.316406-2.6875-6-6-6zm0 0"/></svg>